<svg width="14" height="14" viewBox="0 0 14 14" fill="none" xmlns="http://www.w3.org/2000/svg">
<g clip-path="url(#clip0_1_170)">
<path d="M11.0833 0H2.91667C1.30608 0 0 1.30608 0 2.91667V11.0833C0 12.6939 1.30608 14 2.91667 14H11.0833C12.6945 14 14 12.6939 14 11.0833V2.91667C14 1.30608 12.6945 0 11.0833 0ZM9.33333 4.08333H8.211C7.85225 4.08333 7.58333 4.23033 7.58333 4.60192V5.25H9.33333L9.1945 7H7.58333V11.6667H5.83333V7H4.66667V5.25H5.83333V4.12825C5.83333 2.94875 6.454 2.33333 7.85225 2.33333H9.33333V4.08333Z" fill="white"/>
</g>
<defs>
<clipPath id="clip0_1_170">
<rect width="14" height="14" fill="white"/>
</clipPath>
</defs>
</svg>
