<svg width="14" height="14" viewBox="0 0 14 14" fill="none" xmlns="http://www.w3.org/2000/svg">
<g clip-path="url(#clip0_26_61)">
<path d="M14 2.65826C13.4849 2.88692 12.9313 3.04092 12.3503 3.11034C12.9436 2.75509 13.3992 2.19217 13.6132 1.52134C13.0585 1.85034 12.4437 2.08951 11.7892 2.21842C11.2659 1.66017 10.5187 1.31134 9.69267 1.31134C7.83825 1.31134 6.47558 3.04151 6.89442 4.83759C4.508 4.71801 2.39167 3.57467 0.97475 1.83692C0.22225 3.12784 0.5845 4.81659 1.86317 5.67176C1.393 5.65659 0.949667 5.52767 0.562917 5.31242C0.531417 6.64301 1.48517 7.88784 2.8665 8.16492C2.46225 8.27459 2.0195 8.30026 1.56917 8.21392C1.93433 9.35492 2.99483 10.185 4.2525 10.2083C3.045 11.1551 1.52367 11.578 0 11.3983C1.27108 12.2133 2.78133 12.6887 4.403 12.6887C9.73583 12.6887 12.7487 8.18476 12.5667 4.14517C13.1279 3.73976 13.615 3.23401 14 2.65826V2.65826Z" fill="white"/>
</g>
<defs>
<clipPath id="clip0_26_61">
<rect width="14" height="14" fill="white"/>
</clipPath>
</defs>
</svg>
