<svg width="14" height="14" viewBox="0 0 14 14" fill="none" xmlns="http://www.w3.org/2000/svg">
<g clip-path="url(#clip0_1_176)">
<path d="M0.0332031 14L1.01729 10.4049C0.410036 9.35258 0.0909531 8.15967 0.0915365 6.93642C0.0932865 3.11208 3.20537 0 7.02912 0C8.8847 0.000583333 10.6265 0.723333 11.9367 2.03467C13.2463 3.346 13.9673 5.089 13.9667 6.94283C13.965 10.7677 10.8529 13.8798 7.02912 13.8798C5.86829 13.8792 4.72437 13.5882 3.71112 13.0352L0.0332031 14ZM3.88145 11.7793C4.85912 12.3597 5.79245 12.7073 7.02679 12.7079C10.2048 12.7079 12.7936 10.1214 12.7954 6.94167C12.7965 3.7555 10.22 1.1725 7.03145 1.17133C3.85112 1.17133 1.26404 3.75783 1.26287 6.937C1.26229 8.23492 1.64262 9.20675 2.28137 10.2235L1.69862 12.3515L3.88145 11.7793ZM10.5239 8.59192C10.4807 8.51958 10.3652 8.47642 10.1914 8.3895C10.0181 8.30258 9.16587 7.88317 9.00662 7.82542C8.84795 7.76767 8.73245 7.7385 8.61637 7.91233C8.50087 8.08558 8.16837 8.47642 8.06745 8.59192C7.96654 8.70742 7.86504 8.722 7.69179 8.63508C7.51854 8.54817 6.9597 8.36558 6.29762 7.77467C5.78254 7.315 5.43429 6.74742 5.33337 6.57358C5.23245 6.40033 5.32287 6.30642 5.4092 6.22008C5.48737 6.1425 5.58245 6.01767 5.66937 5.91617C5.75745 5.81583 5.78604 5.7435 5.84437 5.62742C5.90212 5.51192 5.87354 5.41042 5.82979 5.3235C5.78604 5.23717 5.43954 4.38375 5.29545 4.03667C5.15429 3.69892 5.01137 3.74442 4.9052 3.73917L4.5727 3.73333C4.4572 3.73333 4.26937 3.7765 4.1107 3.95033C3.95204 4.12417 3.50404 4.543 3.50404 5.39642C3.50404 6.24983 4.12529 7.07408 4.21162 7.18958C4.29854 7.30508 5.4337 9.05625 7.17262 9.807C7.5862 9.9855 7.90937 10.0922 8.16079 10.1722C8.57612 10.304 8.95412 10.2853 9.25279 10.241C9.58587 10.1914 10.2783 9.82158 10.423 9.41675C10.5676 9.01133 10.5676 8.66425 10.5239 8.59192Z" fill="white"/>
</g>
<defs>
<clipPath id="clip0_1_176">
<rect width="14" height="14" fill="white"/>
</clipPath>
</defs>
</svg>
