<svg width="16" height="16" viewBox="0 0 16 16" fill="none" xmlns="http://www.w3.org/2000/svg">
<g clip-path="url(#clip0_1_20)">
<path fill-rule="evenodd" clip-rule="evenodd" d="M7.98525 11.3333C7.35325 11.3407 6.96592 11.9307 6.66659 12.4053C6.02325 13.4287 5.32659 14.5127 4.72725 15.4247C4.51925 15.7413 4.29392 15.9973 3.91459 16C3.53459 16.0027 3.21325 15.5433 3.39659 15.1567C3.88392 14.1307 5.99992 10.4387 5.99992 7.33333C5.99992 6.258 5.42792 6 4.66659 6H1.99992C1.63192 6 1.33325 5.70133 1.33325 5.33333C1.33325 4.96533 1.63192 4.66667 1.99992 4.66667H13.9999C14.3686 4.66667 14.6666 4.966 14.6666 5.33333C14.6666 5.70067 14.3686 6 13.9999 6H11.3333C10.5726 6 9.99992 6.258 9.99992 7.33333C9.99992 10.4387 12.1166 14.1307 12.6039 15.1567C12.7873 15.5433 12.4659 16.0027 12.0859 16C11.7066 15.9973 11.4806 15.7413 11.2733 15.4247C10.6739 14.5127 9.97725 13.4287 9.33325 12.4053C9.03259 11.9273 8.64125 11.3313 7.99992 11.3333H7.98525ZM7.99992 0C9.10459 0 9.99992 0.896 9.99992 2C9.99992 3.104 9.10459 4 7.99992 4C6.89659 4 5.99992 3.104 5.99992 2C5.99992 0.896 6.89659 0 7.99992 0Z" fill="#002140"/>
</g>
<defs>
<clipPath id="clip0_1_20">
<rect width="16" height="16" fill="white"/>
</clipPath>
</defs>
</svg>
