<svg width="189" height="49" viewBox="0 0 189 49" fill="none" xmlns="http://www.w3.org/2000/svg">
<path d="M67.96 24V11.04H72.312C73.0907 11.04 73.7307 11.1893 74.232 11.488C74.7333 11.776 75.1067 12.2027 75.352 12.768C75.5973 13.3227 75.72 14 75.72 14.8C75.72 15.8027 75.5547 16.5707 75.224 17.104C74.8933 17.6267 74.4453 17.9893 73.88 18.192C73.3147 18.3947 72.68 18.496 71.976 18.496H70.824V24H67.96ZM70.824 16.496H71.784C72.136 16.496 72.4027 16.432 72.584 16.304C72.7653 16.176 72.8827 15.984 72.936 15.728C73 15.472 73.032 15.1467 73.032 14.752C73.032 14.4213 73.0053 14.1333 72.952 13.888C72.9093 13.632 72.7973 13.4293 72.616 13.28C72.4347 13.1307 72.152 13.056 71.768 13.056H70.824V16.496ZM79.981 24.16C79.3197 24.16 78.7437 24.048 78.253 23.824C77.773 23.6 77.3997 23.264 77.133 22.816C76.877 22.368 76.749 21.808 76.749 21.136V17.616C76.749 16.944 76.877 16.384 77.133 15.936C77.3997 15.488 77.773 15.152 78.253 14.928C78.7437 14.704 79.3197 14.592 79.981 14.592C80.6423 14.592 81.213 14.704 81.693 14.928C82.1837 15.152 82.5623 15.488 82.829 15.936C83.0957 16.384 83.229 16.944 83.229 17.616V21.136C83.229 21.808 83.0957 22.368 82.829 22.816C82.5623 23.264 82.1837 23.6 81.693 23.824C81.213 24.048 80.6423 24.16 79.981 24.16ZM79.997 22.432C80.1677 22.432 80.301 22.3893 80.397 22.304C80.493 22.208 80.557 22.08 80.589 21.92C80.6317 21.7493 80.653 21.5467 80.653 21.312V17.44C80.653 17.2053 80.6317 17.008 80.589 16.848C80.557 16.6773 80.493 16.5493 80.397 16.464C80.301 16.368 80.1677 16.32 79.997 16.32C79.8263 16.32 79.693 16.368 79.597 16.464C79.501 16.5493 79.4317 16.6773 79.389 16.848C79.3463 17.008 79.325 17.2053 79.325 17.44V21.312C79.325 21.5467 79.3463 21.7493 79.389 21.92C79.4317 22.08 79.501 22.208 79.597 22.304C79.693 22.3893 79.8263 22.432 79.997 22.432ZM84.7874 24V11.04H87.3794V24H84.7874ZM92.106 24.16C91.4447 24.16 90.8687 24.048 90.378 23.824C89.898 23.6 89.5247 23.264 89.258 22.816C89.002 22.368 88.874 21.808 88.874 21.136V17.616C88.874 16.944 89.002 16.384 89.258 15.936C89.5247 15.488 89.898 15.152 90.378 14.928C90.8687 14.704 91.4447 14.592 92.106 14.592C92.7673 14.592 93.338 14.704 93.818 14.928C94.3087 15.152 94.6873 15.488 94.954 15.936C95.2207 16.384 95.354 16.944 95.354 17.616V21.136C95.354 21.808 95.2207 22.368 94.954 22.816C94.6873 23.264 94.3087 23.6 93.818 23.824C93.338 24.048 92.7673 24.16 92.106 24.16ZM92.122 22.432C92.2927 22.432 92.426 22.3893 92.522 22.304C92.618 22.208 92.682 22.08 92.714 21.92C92.7567 21.7493 92.778 21.5467 92.778 21.312V17.44C92.778 17.2053 92.7567 17.008 92.714 16.848C92.682 16.6773 92.618 16.5493 92.522 16.464C92.426 16.368 92.2927 16.32 92.122 16.32C91.9513 16.32 91.818 16.368 91.722 16.464C91.626 16.5493 91.5567 16.6773 91.514 16.848C91.4713 17.008 91.45 17.2053 91.45 17.44V21.312C91.45 21.5467 91.4713 21.7493 91.514 21.92C91.5567 22.08 91.626 22.208 91.722 22.304C91.818 22.3893 91.9513 22.432 92.122 22.432ZM104.782 24.192C103.79 24.192 103.011 24.032 102.446 23.712C101.891 23.3813 101.502 22.9067 101.278 22.288C101.054 21.6587 100.942 20.8907 100.942 19.984V11.04H103.774V20.416C103.774 20.6827 103.795 20.9493 103.838 21.216C103.881 21.4827 103.971 21.7013 104.11 21.872C104.259 22.0427 104.483 22.128 104.782 22.128C105.091 22.128 105.315 22.0427 105.454 21.872C105.593 21.7013 105.678 21.4827 105.71 21.216C105.753 20.9493 105.774 20.6827 105.774 20.416V11.04H108.622V19.984C108.622 20.8907 108.505 21.6587 108.27 22.288C108.046 22.9067 107.657 23.3813 107.102 23.712C106.547 24.032 105.774 24.192 104.782 24.192ZM110.3 24V14.752H112.908V15.68C113.25 15.3387 113.602 15.072 113.964 14.88C114.338 14.688 114.727 14.592 115.132 14.592C115.516 14.592 115.831 14.688 116.076 14.88C116.332 15.0613 116.524 15.3173 116.652 15.648C116.78 15.968 116.844 16.336 116.844 16.752V24H114.252V17.12C114.252 16.896 114.215 16.7253 114.14 16.608C114.066 16.4907 113.927 16.432 113.724 16.432C113.618 16.432 113.49 16.464 113.34 16.528C113.202 16.5813 113.058 16.6613 112.908 16.768V24H110.3ZM118.426 24V14.752H121.034V24H118.426ZM118.41 13.184V11.376H121.034V13.184H118.41ZM123.844 24L121.988 14.752H124.484L125.252 20.656L125.956 14.752H128.452L126.548 24H123.844ZM132.403 24.16C131.731 24.16 131.155 24.0427 130.674 23.808C130.195 23.5627 129.827 23.2107 129.571 22.752C129.315 22.2827 129.187 21.7227 129.187 21.072V17.68C129.187 17.0187 129.315 16.4587 129.571 16C129.827 15.5413 130.195 15.1947 130.674 14.96C131.165 14.7147 131.741 14.592 132.403 14.592C133.085 14.592 133.651 14.7093 134.099 14.944C134.557 15.1787 134.899 15.5253 135.123 15.984C135.357 16.4427 135.475 17.008 135.475 17.68V19.536H131.763V21.312C131.763 21.5467 131.789 21.7387 131.843 21.888C131.896 22.0373 131.971 22.144 132.067 22.208C132.163 22.272 132.275 22.304 132.403 22.304C132.531 22.304 132.643 22.2773 132.739 22.224C132.845 22.16 132.925 22.064 132.979 21.936C133.043 21.808 133.075 21.632 133.075 21.408V20.432H135.475V21.328C135.475 22.2667 135.203 22.976 134.659 23.456C134.115 23.9253 133.363 24.16 132.403 24.16ZM131.763 18.32H133.075V17.392C133.075 17.1467 133.043 16.9547 132.979 16.816C132.925 16.6773 132.845 16.5813 132.739 16.528C132.643 16.4747 132.525 16.448 132.387 16.448C132.259 16.448 132.147 16.48 132.051 16.544C131.965 16.608 131.896 16.72 131.843 16.88C131.789 17.0293 131.763 17.248 131.763 17.536V18.32ZM136.926 24V14.752H139.534V16.288C139.833 15.7547 140.131 15.3493 140.43 15.072C140.729 14.784 141.091 14.64 141.518 14.64C141.603 14.64 141.678 14.6453 141.742 14.656C141.806 14.656 141.865 14.6667 141.918 14.688V17.28C141.801 17.2267 141.667 17.184 141.518 17.152C141.379 17.1093 141.23 17.088 141.07 17.088C140.771 17.088 140.494 17.168 140.238 17.328C139.982 17.488 139.747 17.7067 139.534 17.984V24H136.926ZM145.867 24.16C145.056 24.16 144.379 23.9787 143.835 23.616C143.302 23.2533 142.864 22.6613 142.523 21.84L144.299 21.056C144.47 21.472 144.667 21.8027 144.891 22.048C145.126 22.2827 145.382 22.4 145.659 22.4C145.862 22.4 146.011 22.3573 146.107 22.272C146.214 22.1867 146.267 22.0693 146.267 21.92C146.267 21.6747 146.171 21.4507 145.979 21.248C145.798 21.0453 145.467 20.7467 144.987 20.352L144.315 19.792C143.824 19.376 143.435 18.976 143.147 18.592C142.87 18.1973 142.731 17.712 142.731 17.136C142.731 16.6347 142.859 16.192 143.115 15.808C143.382 15.424 143.734 15.1253 144.171 14.912C144.608 14.6987 145.078 14.592 145.579 14.592C146.336 14.592 146.971 14.8 147.483 15.216C147.995 15.632 148.352 16.2187 148.555 16.976L146.875 17.744C146.811 17.5413 146.72 17.3387 146.603 17.136C146.486 16.9333 146.342 16.7627 146.171 16.624C146.011 16.4853 145.835 16.416 145.643 16.416C145.472 16.416 145.334 16.464 145.227 16.56C145.131 16.656 145.083 16.784 145.083 16.944C145.083 17.1467 145.195 17.3653 145.419 17.6C145.654 17.8347 145.974 18.1173 146.379 18.448L147.035 19.024C147.302 19.248 147.563 19.488 147.819 19.744C148.075 20 148.283 20.2827 148.443 20.592C148.614 20.9013 148.699 21.2533 148.699 21.648C148.699 22.1813 148.566 22.64 148.299 23.024C148.032 23.3973 147.68 23.68 147.243 23.872C146.816 24.064 146.358 24.16 145.867 24.16ZM149.816 24V14.752H152.424V24H149.816ZM149.8 13.184V11.376H152.424V13.184H149.8ZM156.899 24.096C156.205 24.096 155.667 23.9947 155.283 23.792C154.909 23.5893 154.653 23.296 154.515 22.912C154.376 22.5173 154.307 22.0427 154.307 21.488V16.464H153.411V14.752H154.307V11.936H156.947V14.752H158.259V16.464H156.947V21.232C156.947 21.4987 157.021 21.6907 157.171 21.808C157.331 21.9253 157.528 21.984 157.763 21.984C157.901 21.984 158.029 21.9787 158.147 21.968C158.264 21.9467 158.371 21.9307 158.467 21.92V23.968C158.328 23.9893 158.109 24.016 157.811 24.048C157.512 24.08 157.208 24.096 156.899 24.096ZM161.595 24.16C161.126 24.16 160.731 24.048 160.411 23.824C160.091 23.6 159.851 23.3173 159.691 22.976C159.531 22.624 159.451 22.2667 159.451 21.904C159.451 21.328 159.563 20.8427 159.787 20.448C160.022 20.0533 160.326 19.7227 160.699 19.456C161.072 19.1893 161.483 18.9653 161.931 18.784C162.379 18.592 162.822 18.4213 163.259 18.272V17.344C163.259 17.184 163.243 17.0453 163.211 16.928C163.179 16.8 163.126 16.704 163.051 16.64C162.976 16.5653 162.864 16.528 162.715 16.528C162.566 16.528 162.448 16.56 162.363 16.624C162.288 16.688 162.235 16.7787 162.203 16.896C162.171 17.0027 162.15 17.1253 162.139 17.264L162.075 17.936L159.643 17.84C159.696 16.7307 159.99 15.9147 160.523 15.392C161.067 14.8587 161.878 14.592 162.955 14.592C163.894 14.592 164.592 14.8533 165.051 15.376C165.52 15.888 165.755 16.5547 165.755 17.376V21.696C165.755 22.08 165.76 22.416 165.771 22.704C165.792 22.992 165.814 23.2427 165.835 23.456C165.867 23.6693 165.894 23.8507 165.915 24H163.579C163.547 23.7547 163.51 23.488 163.467 23.2C163.424 22.912 163.392 22.7413 163.371 22.688C163.264 23.072 163.062 23.4133 162.763 23.712C162.475 24.0107 162.086 24.16 161.595 24.16ZM162.523 22.4C162.63 22.4 162.726 22.3787 162.811 22.336C162.907 22.2933 162.992 22.2347 163.067 22.16C163.142 22.0853 163.206 22.0107 163.259 21.936V19.408C163.046 19.536 162.848 19.6693 162.667 19.808C162.486 19.936 162.331 20.08 162.203 20.24C162.075 20.4 161.974 20.576 161.899 20.768C161.835 20.9493 161.803 21.1573 161.803 21.392C161.803 21.7013 161.867 21.9467 161.995 22.128C162.123 22.3093 162.299 22.4 162.523 22.4ZM162.075 13.728L163.083 10.512H165.739L163.723 13.728H162.075ZM167.332 24V14.752H169.94V16.288C170.239 15.7547 170.538 15.3493 170.836 15.072C171.135 14.784 171.498 14.64 171.924 14.64C172.01 14.64 172.084 14.6453 172.148 14.656C172.212 14.656 172.271 14.6667 172.324 14.688V17.28C172.207 17.2267 172.074 17.184 171.924 17.152C171.786 17.1093 171.636 17.088 171.476 17.088C171.178 17.088 170.9 17.168 170.644 17.328C170.388 17.488 170.154 17.7067 169.94 17.984V24H167.332ZM173.441 24V14.752H176.049V24H173.441ZM173.425 13.184V11.376H176.049V13.184H173.425ZM180.7 24.16C180.038 24.16 179.462 24.048 178.972 23.824C178.492 23.6 178.118 23.264 177.852 22.816C177.596 22.368 177.468 21.808 177.468 21.136V17.616C177.468 16.944 177.596 16.384 177.852 15.936C178.118 15.488 178.492 15.152 178.972 14.928C179.462 14.704 180.038 14.592 180.7 14.592C181.361 14.592 181.932 14.704 182.412 14.928C182.902 15.152 183.281 15.488 183.548 15.936C183.814 16.384 183.948 16.944 183.948 17.616V21.136C183.948 21.808 183.814 22.368 183.548 22.816C183.281 23.264 182.902 23.6 182.412 23.824C181.932 24.048 181.361 24.16 180.7 24.16ZM180.716 22.432C180.886 22.432 181.02 22.3893 181.116 22.304C181.212 22.208 181.276 22.08 181.308 21.92C181.35 21.7493 181.372 21.5467 181.372 21.312V17.44C181.372 17.2053 181.35 17.008 181.308 16.848C181.276 16.6773 181.212 16.5493 181.116 16.464C181.02 16.368 180.886 16.32 180.716 16.32C180.545 16.32 180.412 16.368 180.316 16.464C180.22 16.5493 180.15 16.6773 180.108 16.848C180.065 17.008 180.044 17.2053 180.044 17.44V21.312C180.044 21.5467 180.065 21.7493 180.108 21.92C180.15 22.08 180.22 22.208 180.316 22.304C180.412 22.3893 180.545 22.432 180.716 22.432ZM73.2188 31H74.1875V36.2969C74.1875 36.8437 74.0586 37.332 73.8008 37.7617C73.5456 38.1888 73.1849 38.526 72.7188 38.7734C72.2526 39.0182 71.7057 39.1406 71.0781 39.1406C70.4505 39.1406 69.9036 39.0182 69.4375 38.7734C68.9714 38.526 68.6094 38.1888 68.3516 37.7617C68.0964 37.332 67.9688 36.8437 67.9688 36.2969V31H68.9375V36.2188C68.9375 36.6094 69.0234 36.957 69.1953 37.2617C69.3672 37.5638 69.612 37.8021 69.9297 37.9766C70.25 38.1484 70.6328 38.2344 71.0781 38.2344C71.5234 38.2344 71.9063 38.1484 72.2266 37.9766C72.5469 37.8021 72.7917 37.5638 72.9609 37.2617C73.1328 36.957 73.2188 36.6094 73.2188 36.2188V31ZM77.0002 39H75.9846L78.9221 31H79.9221L82.8596 39H81.8439L79.4533 32.2656H79.3908L77.0002 39ZM77.3752 35.875H81.4689V36.7344H77.3752V35.875ZM84.6557 39V31H87.4525C88.0098 31 88.4695 31.0964 88.8314 31.2891C89.1934 31.4792 89.463 31.7357 89.64 32.0586C89.8171 32.3789 89.9057 32.7344 89.9057 33.125C89.9057 33.4687 89.8445 33.7526 89.7221 33.9766C89.6023 34.2005 89.4434 34.3776 89.2455 34.5078C89.0502 34.638 88.838 34.7344 88.6088 34.7969V34.875C88.8536 34.8906 89.0997 34.9766 89.3471 35.1328C89.5945 35.2891 89.8015 35.513 89.9682 35.8047C90.1348 36.0964 90.2182 36.4531 90.2182 36.875C90.2182 37.276 90.127 37.6367 89.9447 37.957C89.7624 38.2773 89.4747 38.5312 89.0814 38.7187C88.6882 38.9062 88.1765 39 87.5463 39H84.6557ZM85.6244 38.1406H87.5463C88.1791 38.1406 88.6283 38.0182 88.8939 37.7734C89.1622 37.526 89.2963 37.2266 89.2963 36.875C89.2963 36.6042 89.2273 36.3542 89.0893 36.125C88.9512 35.8932 88.7546 35.7083 88.4994 35.5703C88.2442 35.4297 87.9421 35.3594 87.5932 35.3594H85.6244V38.1406ZM85.6244 34.5156H87.4213C87.713 34.5156 87.976 34.4583 88.2104 34.3437C88.4473 34.2292 88.6348 34.0677 88.7729 33.8594C88.9135 33.651 88.9838 33.4062 88.9838 33.125C88.9838 32.7734 88.8614 32.4753 88.6166 32.2305C88.3718 31.9831 87.9838 31.8594 87.4525 31.8594H85.6244V34.5156ZM98.1443 39.125C97.6443 39.125 97.2029 38.9987 96.8201 38.7461C96.4373 38.4909 96.1378 38.1315 95.9217 37.668C95.7055 37.2018 95.5975 36.651 95.5975 36.0156C95.5975 35.3854 95.7055 34.8385 95.9217 34.375C96.1378 33.9115 96.4386 33.5534 96.824 33.3008C97.2094 33.0482 97.6548 32.9219 98.16 32.9219C98.5506 32.9219 98.8592 32.987 99.0857 33.1172C99.3149 33.2448 99.4894 33.3906 99.6092 33.5547C99.7316 33.7161 99.8266 33.849 99.8943 33.9531H99.9725V31H100.894V39H100.004V38.0781H99.8943C99.8266 38.1875 99.7303 38.3255 99.6053 38.4922C99.4803 38.6562 99.3019 38.8034 99.0701 38.9336C98.8383 39.0612 98.5298 39.125 98.1443 39.125ZM98.2693 38.2969C98.6391 38.2969 98.9516 38.2005 99.2068 38.0078C99.462 37.8125 99.6561 37.543 99.7889 37.1992C99.9217 36.8529 99.9881 36.4531 99.9881 36C99.9881 35.5521 99.923 35.1602 99.7928 34.8242C99.6626 34.4857 99.4699 34.2227 99.2146 34.0352C98.9594 33.8451 98.6443 33.75 98.2693 33.75C97.8787 33.75 97.5532 33.8503 97.2928 34.0508C97.035 34.2487 96.841 34.5182 96.7107 34.8594C96.5831 35.1979 96.5193 35.5781 96.5193 36C96.5193 36.4271 96.5844 36.8151 96.7146 37.1641C96.8475 37.5104 97.0428 37.7865 97.3006 37.9922C97.561 38.1953 97.8839 38.2969 98.2693 38.2969ZM105.776 39.125C105.198 39.125 104.7 38.9974 104.28 38.7422C103.864 38.4844 103.542 38.125 103.315 37.6641C103.091 37.2005 102.979 36.6615 102.979 36.0469C102.979 35.4323 103.091 34.8906 103.315 34.4219C103.542 33.9505 103.857 33.5833 104.261 33.3203C104.667 33.0547 105.141 32.9219 105.683 32.9219C105.995 32.9219 106.304 32.974 106.608 33.0781C106.913 33.1823 107.19 33.3516 107.44 33.5859C107.69 33.8177 107.89 34.125 108.038 34.5078C108.187 34.8906 108.261 35.362 108.261 35.9219V36.3125H103.636V35.5156H107.323C107.323 35.1771 107.256 34.875 107.12 34.6094C106.987 34.3437 106.797 34.1341 106.55 33.9805C106.305 33.8268 106.016 33.75 105.683 33.75C105.315 33.75 104.998 33.8411 104.729 34.0234C104.464 34.2031 104.259 34.4375 104.116 34.7266C103.973 35.0156 103.901 35.3255 103.901 35.6562V36.1875C103.901 36.6406 103.979 37.0247 104.136 37.3398C104.295 37.6523 104.515 37.8906 104.796 38.0547C105.077 38.2161 105.404 38.2969 105.776 38.2969C106.019 38.2969 106.237 38.263 106.433 38.1953C106.631 38.125 106.801 38.0208 106.944 37.8828C107.088 37.7422 107.198 37.5677 107.276 37.3594L108.167 37.6094C108.073 37.9115 107.916 38.1771 107.694 38.4062C107.473 38.6328 107.2 38.8099 106.874 38.9375C106.549 39.0625 106.183 39.125 105.776 39.125ZM118.357 33C118.31 32.6042 118.12 32.2969 117.787 32.0781C117.453 31.8594 117.044 31.75 116.56 31.75C116.206 31.75 115.896 31.8073 115.63 31.9219C115.367 32.0365 115.162 32.194 115.013 32.3945C114.867 32.5951 114.794 32.8229 114.794 33.0781C114.794 33.2917 114.845 33.4753 114.947 33.6289C115.051 33.7799 115.184 33.9062 115.345 34.0078C115.507 34.1068 115.676 34.1888 115.853 34.2539C116.03 34.3164 116.193 34.3672 116.341 34.4062L117.154 34.625C117.362 34.6797 117.594 34.7552 117.849 34.8516C118.107 34.9479 118.353 35.0794 118.587 35.2461C118.824 35.4102 119.02 35.6211 119.173 35.8789C119.327 36.1367 119.404 36.4531 119.404 36.8281C119.404 37.2604 119.29 37.651 119.064 38C118.84 38.349 118.512 38.6263 118.079 38.832C117.65 39.0378 117.128 39.1406 116.513 39.1406C115.94 39.1406 115.444 39.0482 115.025 38.8633C114.608 38.6784 114.28 38.4206 114.04 38.0898C113.803 37.7591 113.669 37.375 113.638 36.9375H114.638C114.664 37.2396 114.766 37.4896 114.943 37.6875C115.122 37.8828 115.349 38.0286 115.622 38.125C115.899 38.2187 116.195 38.2656 116.513 38.2656C116.883 38.2656 117.215 38.2057 117.509 38.0859C117.803 37.9635 118.037 37.7943 118.208 37.5781C118.38 37.3594 118.466 37.1042 118.466 36.8125C118.466 36.5469 118.392 36.3307 118.244 36.1641C118.095 35.9974 117.9 35.862 117.658 35.7578C117.415 35.6536 117.154 35.5625 116.872 35.4844L115.888 35.2031C115.263 35.0234 114.768 34.7669 114.404 34.4336C114.039 34.1003 113.857 33.6641 113.857 33.125C113.857 32.6771 113.978 32.2865 114.22 31.9531C114.465 31.6172 114.793 31.3568 115.204 31.1719C115.619 30.9844 116.081 30.8906 116.591 30.8906C117.107 30.8906 117.565 30.9831 117.966 31.168C118.367 31.3503 118.685 31.6003 118.919 31.918C119.156 32.2357 119.281 32.5964 119.294 33H118.357ZM123.187 39.1406C122.807 39.1406 122.462 39.069 122.152 38.9258C121.842 38.7799 121.596 38.5703 121.414 38.2969C121.231 38.0208 121.14 37.6875 121.14 37.2969C121.14 36.9531 121.208 36.6745 121.343 36.4609C121.479 36.2448 121.66 36.0755 121.886 35.9531C122.113 35.8307 122.363 35.7396 122.636 35.6797C122.912 35.6172 123.19 35.5677 123.468 35.5313C123.833 35.4844 124.129 35.4492 124.355 35.4258C124.584 35.3997 124.751 35.3568 124.855 35.2969C124.962 35.237 125.015 35.1328 125.015 34.9844V34.9531C125.015 34.5677 124.91 34.2682 124.699 34.0547C124.49 33.8411 124.174 33.7344 123.75 33.7344C123.31 33.7344 122.964 33.8307 122.714 34.0234C122.464 34.2161 122.289 34.4219 122.187 34.6406L121.312 34.3281C121.468 33.9635 121.677 33.6797 121.937 33.4766C122.2 33.2708 122.487 33.1276 122.796 33.0469C123.109 32.9635 123.416 32.9219 123.718 32.9219C123.911 32.9219 124.132 32.9453 124.382 32.9922C124.635 33.0365 124.879 33.1289 125.113 33.2695C125.35 33.4102 125.546 33.6224 125.703 33.9062C125.859 34.1901 125.937 34.5703 125.937 35.0469V39H125.015V38.1875H124.968C124.906 38.3177 124.802 38.457 124.656 38.6055C124.51 38.7539 124.316 38.8802 124.074 38.9844C123.832 39.0885 123.536 39.1406 123.187 39.1406ZM123.328 38.3125C123.692 38.3125 124 38.2409 124.25 38.0977C124.502 37.9544 124.692 37.7695 124.82 37.543C124.95 37.3164 125.015 37.0781 125.015 36.8281V35.9844C124.976 36.0312 124.89 36.0742 124.757 36.1133C124.627 36.1497 124.476 36.1823 124.304 36.2109C124.135 36.237 123.97 36.2604 123.808 36.2812C123.649 36.2995 123.52 36.3151 123.421 36.3281C123.182 36.3594 122.958 36.4102 122.75 36.4805C122.544 36.5482 122.377 36.651 122.25 36.7891C122.125 36.9245 122.062 37.1094 122.062 37.3437C122.062 37.6641 122.181 37.9062 122.418 38.0703C122.657 38.2318 122.961 38.3125 123.328 38.3125ZM128.17 41.25V33H129.06V33.9531H129.17C129.237 33.849 129.331 33.7161 129.451 33.5547C129.573 33.3906 129.748 33.2448 129.974 33.1172C130.204 32.987 130.513 32.9219 130.904 32.9219C131.409 32.9219 131.855 33.0482 132.24 33.3008C132.625 33.5534 132.926 33.9115 133.142 34.375C133.359 34.8385 133.467 35.3854 133.467 36.0156C133.467 36.651 133.359 37.2018 133.142 37.668C132.926 38.1315 132.627 38.4909 132.244 38.7461C131.861 38.9987 131.42 39.125 130.92 39.125C130.534 39.125 130.226 39.0612 129.994 38.9336C129.762 38.8034 129.584 38.6562 129.459 38.4922C129.334 38.3255 129.237 38.1875 129.17 38.0781H129.092V41.25H128.17ZM129.076 36C129.076 36.4531 129.142 36.8529 129.275 37.1992C129.408 37.543 129.602 37.8125 129.857 38.0078C130.112 38.2005 130.425 38.2969 130.795 38.2969C131.18 38.2969 131.502 38.1953 131.76 37.9922C132.02 37.7865 132.215 37.5104 132.346 37.1641C132.478 36.8151 132.545 36.4271 132.545 36C132.545 35.5781 132.48 35.1979 132.349 34.8594C132.222 34.5182 132.028 34.2487 131.767 34.0508C131.51 33.8503 131.185 33.75 130.795 33.75C130.42 33.75 130.105 33.8451 129.849 34.0352C129.594 34.2227 129.401 34.4857 129.271 34.8242C129.141 35.1602 129.076 35.5521 129.076 36ZM135.423 39V33H136.345V39H135.423ZM135.892 32C135.712 32 135.557 31.9388 135.427 31.8164C135.299 31.694 135.235 31.5469 135.235 31.375C135.235 31.2031 135.299 31.056 135.427 30.9336C135.557 30.8112 135.712 30.75 135.892 30.75C136.071 30.75 136.225 30.8112 136.353 30.9336C136.483 31.056 136.548 31.2031 136.548 31.375C136.548 31.5469 136.483 31.694 136.353 31.8164C136.225 31.9388 136.071 32 135.892 32ZM138.583 39V33H139.474V33.9062H139.536C139.646 33.6094 139.844 33.3685 140.13 33.1836C140.417 32.9987 140.739 32.9062 141.099 32.9062C141.167 32.9062 141.251 32.9076 141.353 32.9102C141.454 32.9128 141.531 32.9167 141.583 32.9219V33.8594C141.552 33.8516 141.48 33.8398 141.368 33.8242C141.259 33.806 141.143 33.7969 141.021 33.7969C140.729 33.7969 140.469 33.8581 140.239 33.9805C140.013 34.1003 139.833 34.2669 139.7 34.4805C139.57 34.6914 139.505 34.9323 139.505 35.2031V39H138.583ZM144.992 39.1406C144.611 39.1406 144.266 39.069 143.956 38.9258C143.647 38.7799 143.4 38.5703 143.218 38.2969C143.036 38.0208 142.945 37.6875 142.945 37.2969C142.945 36.9531 143.012 36.6745 143.148 36.4609C143.283 36.2448 143.464 36.0755 143.691 35.9531C143.917 35.8307 144.167 35.7396 144.441 35.6797C144.717 35.6172 144.994 35.5677 145.273 35.5313C145.637 35.4844 145.933 35.4492 146.16 35.4258C146.389 35.3997 146.555 35.3568 146.66 35.2969C146.766 35.237 146.82 35.1328 146.82 34.9844V34.9531C146.82 34.5677 146.714 34.2682 146.503 34.0547C146.295 33.8411 145.979 33.7344 145.554 33.7344C145.114 33.7344 144.769 33.8307 144.519 34.0234C144.269 34.2161 144.093 34.4219 143.992 34.6406L143.117 34.3281C143.273 33.9635 143.481 33.6797 143.742 33.4766C144.005 33.2708 144.291 33.1276 144.601 33.0469C144.913 32.9635 145.221 32.9219 145.523 32.9219C145.716 32.9219 145.937 32.9453 146.187 32.9922C146.44 33.0365 146.683 33.1289 146.917 33.2695C147.154 33.4102 147.351 33.6224 147.507 33.9062C147.663 34.1901 147.742 34.5703 147.742 35.0469V39H146.82V38.1875H146.773C146.71 38.3177 146.606 38.457 146.46 38.6055C146.315 38.7539 146.121 38.8802 145.878 38.9844C145.636 39.0885 145.341 39.1406 144.992 39.1406ZM145.132 38.3125C145.497 38.3125 145.804 38.2409 146.054 38.0977C146.307 37.9544 146.497 37.7695 146.624 37.543C146.755 37.3164 146.82 37.0781 146.82 36.8281V35.9844C146.781 36.0312 146.695 36.0742 146.562 36.1133C146.432 36.1497 146.281 36.1823 146.109 36.2109C145.94 36.237 145.774 36.2604 145.613 36.2812C145.454 36.2995 145.325 36.3151 145.226 36.3281C144.986 36.3594 144.762 36.4102 144.554 36.4805C144.348 36.5482 144.182 36.651 144.054 36.7891C143.929 36.9245 143.867 37.1094 143.867 37.3437C143.867 37.6641 143.985 37.9062 144.222 38.0703C144.462 38.2318 144.765 38.3125 145.132 38.3125ZM150.896 35.3906V39H149.974V33H150.865V33.9375H150.943C151.084 33.6328 151.297 33.388 151.584 33.2031C151.87 33.0156 152.24 32.9219 152.693 32.9219C153.099 32.9219 153.455 33.0052 153.759 33.1719C154.064 33.3359 154.301 33.5859 154.47 33.9219C154.64 34.2552 154.724 34.6771 154.724 35.1875V39H153.802V35.25C153.802 34.7786 153.68 34.4115 153.435 34.1484C153.19 33.8828 152.854 33.75 152.427 33.75C152.133 33.75 151.87 33.8138 151.638 33.9414C151.409 34.069 151.228 34.2552 151.095 34.5C150.963 34.7448 150.896 35.0417 150.896 35.3906ZM159.381 41.375C158.935 41.375 158.553 41.3177 158.232 41.2031C157.912 41.0911 157.645 40.9427 157.431 40.7578C157.221 40.5755 157.053 40.3802 156.928 40.1719L157.662 39.6563C157.745 39.7656 157.851 39.8906 157.978 40.0312C158.106 40.1745 158.28 40.2982 158.502 40.4023C158.726 40.5091 159.019 40.5625 159.381 40.5625C159.865 40.5625 160.265 40.4453 160.58 40.2109C160.895 39.9766 161.053 39.6094 161.053 39.1094V37.8906H160.974C160.907 38 160.81 38.1354 160.685 38.2969C160.563 38.4557 160.386 38.5977 160.154 38.7227C159.925 38.8451 159.615 38.9062 159.224 38.9062C158.74 38.9062 158.305 38.7917 157.92 38.5625C157.537 38.3333 157.234 38 157.01 37.5625C156.788 37.125 156.678 36.5937 156.678 35.9687C156.678 35.3542 156.786 34.819 157.002 34.3633C157.218 33.9049 157.519 33.5508 157.904 33.3008C158.29 33.0482 158.735 32.9219 159.24 32.9219C159.631 32.9219 159.941 32.987 160.17 33.1172C160.401 33.2448 160.579 33.3906 160.701 33.5547C160.826 33.7161 160.922 33.849 160.99 33.9531H161.084V33H161.974V39.1719C161.974 39.6875 161.857 40.1068 161.623 40.4297C161.391 40.7552 161.079 40.9935 160.685 41.1445C160.295 41.2982 159.86 41.375 159.381 41.375ZM159.349 38.0781C159.719 38.0781 160.032 37.9935 160.287 37.8242C160.542 37.6549 160.736 37.4115 160.869 37.0938C161.002 36.776 161.068 36.3958 161.068 35.9531C161.068 35.5208 161.003 35.1393 160.873 34.8086C160.743 34.4779 160.55 34.2187 160.295 34.0312C160.04 33.8437 159.724 33.75 159.349 33.75C158.959 33.75 158.633 33.849 158.373 34.0469C158.115 34.2448 157.921 34.5104 157.791 34.8438C157.663 35.1771 157.599 35.5469 157.599 35.9531C157.599 36.3698 157.665 36.7383 157.795 37.0586C157.928 37.3763 158.123 37.6263 158.381 37.8086C158.641 37.9883 158.964 38.0781 159.349 38.0781ZM165.978 39.1406C165.597 39.1406 165.252 39.069 164.942 38.9258C164.632 38.7799 164.386 38.5703 164.204 38.2969C164.022 38.0208 163.931 37.6875 163.931 37.2969C163.931 36.9531 163.998 36.6745 164.134 36.4609C164.269 36.2448 164.45 36.0755 164.677 35.9531C164.903 35.8307 165.153 35.7396 165.427 35.6797C165.703 35.6172 165.98 35.5677 166.259 35.5313C166.623 35.4844 166.919 35.4492 167.146 35.4258C167.375 35.3997 167.541 35.3568 167.646 35.2969C167.752 35.237 167.806 35.1328 167.806 34.9844V34.9531C167.806 34.5677 167.7 34.2682 167.489 34.0547C167.281 33.8411 166.965 33.7344 166.54 33.7344C166.1 33.7344 165.755 33.8307 165.505 34.0234C165.255 34.2161 165.079 34.4219 164.978 34.6406L164.103 34.3281C164.259 33.9635 164.467 33.6797 164.728 33.4766C164.991 33.2708 165.277 33.1276 165.587 33.0469C165.899 32.9635 166.207 32.9219 166.509 32.9219C166.701 32.9219 166.923 32.9453 167.173 32.9922C167.425 33.0365 167.669 33.1289 167.903 33.2695C168.14 33.4102 168.337 33.6224 168.493 33.9062C168.649 34.1901 168.728 34.5703 168.728 35.0469V39H167.806V38.1875H167.759C167.696 38.3177 167.592 38.457 167.446 38.6055C167.3 38.7539 167.106 38.8802 166.864 38.9844C166.622 39.0885 166.326 39.1406 165.978 39.1406ZM166.118 38.3125C166.483 38.3125 166.79 38.2409 167.04 38.0977C167.293 37.9544 167.483 37.7695 167.61 37.543C167.741 37.3164 167.806 37.0781 167.806 36.8281V35.9844C167.767 36.0312 167.681 36.0742 167.548 36.1133C167.418 36.1497 167.267 36.1823 167.095 36.2109C166.925 36.237 166.76 36.2604 166.599 36.2812C166.44 36.2995 166.311 36.3151 166.212 36.3281C165.972 36.3594 165.748 36.4102 165.54 36.4805C165.334 36.5482 165.168 36.651 165.04 36.7891C164.915 36.9245 164.853 37.1094 164.853 37.3437C164.853 37.6641 164.971 37.9062 165.208 38.0703C165.448 38.2318 165.751 38.3125 166.118 38.3125Z" fill="#241F20"/>
<path d="M43.0244 25.6505C44.9551 26.3401 47.0926 25.3058 47.7132 23.3751C48.3338 21.4444 47.3684 19.3068 45.4377 18.6863C43.507 18.0657 41.3695 19.031 40.7489 20.9617C40.0594 22.8235 41.0937 24.961 43.0244 25.6505Z" fill="#FF2929" fill-opacity="0.69"/>
<path d="M73.3661 1.51697C73.3661 1.51697 60.8166 0 34.8213 0C15.6523 0 0 1.51697 0 1.51697C0 1.51697 6.48159 4.413 5.37834 13.239C5.37834 13.239 14.687 12.1357 18.6173 20.1343L36.1314 14.8249L34.9592 26.478L27.5812 28.2708C26.8917 28.4087 26.3401 28.7534 25.9263 29.1671L9.65343 44.8884C8.68808 45.7848 8.68808 47.3018 9.58447 48.2671C10.4809 49.2325 11.9978 49.2325 12.9632 48.3361L25.1679 36.5451L40.1307 32.8906H40.0617L42.544 32.27L44.8195 34.8902C45.1642 35.304 45.6469 35.5108 46.1985 35.5108H54.2661C55.3003 35.5108 56.1278 34.6834 56.1278 33.6491C56.1278 32.7527 55.5072 32.0632 54.6798 31.8563L48.6809 10.9635L73.7108 3.3787C74.952 2.89603 74.8141 1.65487 73.3661 1.51697ZM52.9559 31.7874C51.0942 31.7874 48.0603 31.7874 47.1639 31.7874L42.8198 26.8917C42.7509 26.8227 42.6819 26.8227 42.613 26.7538C41.7166 25.7195 40.3375 25.1679 38.9585 25.5126L36.8209 26.0643L37.9931 14.2733L47.1639 11.5152C47.0949 11.4462 52.9559 31.7874 52.9559 31.7874Z" fill="#FF2929" fill-opacity="0.69"/>
</svg>
